<svg id="svg" version="1.1" xmlns="http://www.w3.org/2000/svg" xmlns:xlink="http://www.w3.org/1999/xlink" width="400" height="400" viewBox="0, 0, 400,400"><g id="svgg"><path id="path0" d="M186.643 146.331 C 186.477 146.600,182.619 150.003,178.070 153.894 C 173.522 157.785,169.710 161.065,169.600 161.184 C 169.490 161.303,167.960 162.654,166.200 164.187 C 164.440 165.721,161.560 168.357,159.800 170.046 C 158.040 171.735,155.984 173.627,155.231 174.252 C 152.749 176.310,142.643 187.438,140.339 190.649 C 134.590 198.662,131.401 208.148,130.942 218.600 C 130.631 225.662,130.910 226.574,133.416 226.698 C 134.507 226.752,138.910 227.059,143.200 227.381 C 158.634 228.538,160.289 228.554,160.821 227.560 C 162.794 223.875,170.944 214.948,177.978 208.768 C 181.698 205.499,190.084 197.976,190.400 197.623 C 190.510 197.500,192.400 195.785,194.600 193.810 C 196.800 191.836,199.860 189.029,201.400 187.572 C 202.940 186.116,206.222 183.051,208.694 180.762 C 214.174 175.687,234.800 154.870,234.800 154.414 C 234.800 153.906,233.217 153.619,226.872 152.976 C 220.832 152.364,218.759 152.133,208.800 150.959 C 200.009 149.922,201.081 149.425,200.517 154.800 C 199.982 159.895,200.361 166.726,201.468 171.922 C 201.999 174.418,201.881 176.497,201.300 174.863 C 201.195 174.568,199.477 172.138,197.482 169.463 C 190.345 159.894,188.858 156.930,187.632 149.821 C 187.249 147.604,186.811 146.058,186.643 146.331 M241.332 154.736 C 241.112 154.881,239.792 156.710,238.398 158.800 C 233.194 166.602,220.720 182.480,216.400 186.800 C 216.290 186.910,215.496 187.810,214.636 188.800 C 209.052 195.228,198.444 206.365,187.204 217.600 C 178.903 225.897,176.400 228.571,176.400 229.143 C 176.400 229.502,184.682 230.221,195.769 230.826 C 199.932 231.053,203.443 231.303,203.571 231.382 C 203.699 231.461,207.928 231.739,212.969 231.998 C 218.010 232.258,222.583 232.641,223.131 232.850 C 228.687 234.962,257.127 199.195,268.972 175.200 C 270.221 172.670,271.413 170.287,271.621 169.905 C 272.262 168.730,272.062 168.382,270.300 167.612 C 265.015 165.304,257.325 165.837,252.200 168.868 C 247.736 171.508,247.717 171.149,252.100 166.945 C 257.706 161.568,263.670 159.200,271.605 159.200 C 275.647 159.200,275.964 159.143,276.210 158.370 C 276.563 157.256,277.043 157.365,269.400 156.831 C 265.660 156.570,260.800 156.205,258.600 156.021 C 249.326 155.245,244.124 154.783,242.966 154.632 C 242.287 154.544,241.552 154.590,241.332 154.736 " stroke="none" fill="#07435c" fill-rule="evenodd"></path><path id="path1" d="M0.000 200.000 L 0.000 400.000 200.000 400.000 L 400.000 400.000 400.000 200.000 L 400.000 0.000 200.000 0.000 L 0.000 0.000 0.000 200.000 M258.301 59.030 C 266.064 67.195,274.734 85.762,278.928 103.200 C 283.430 121.918,283.046 140.248,277.846 154.800 C 277.335 156.230,276.755 157.914,276.558 158.542 L 276.200 159.685 271.200 159.768 C 264.769 159.874,261.319 160.888,256.257 164.160 C 253.693 165.817,250.285 168.818,250.604 169.138 C 250.736 169.269,250.969 169.194,251.122 168.970 C 253.553 165.413,268.976 164.805,272.305 168.134 C 272.950 168.778,264.333 186.264,263.139 186.733 C 262.953 186.807,262.800 187.036,262.800 187.243 C 262.800 187.728,259.527 192.957,259.113 193.133 C 258.941 193.207,258.800 193.414,258.800 193.593 C 258.800 193.975,253.710 201.547,252.929 202.328 C 252.638 202.619,252.400 202.990,252.400 203.153 C 252.400 203.316,252.085 203.798,251.700 204.225 C 251.315 204.651,250.197 206.080,249.216 207.400 C 247.009 210.371,247.309 209.988,241.200 217.619 C 236.195 223.870,233.897 226.267,228.661 230.697 C 224.948 233.838,217.261 237.791,211.200 239.677 C 196.564 244.230,187.552 249.713,178.048 259.846 C 173.929 264.237,173.970 264.375,178.700 262.030 C 180.845 260.966,183.320 259.882,184.200 259.620 C 185.080 259.358,186.160 258.998,186.600 258.819 C 193.768 255.904,209.916 256.916,206.147 260.044 C 205.788 260.342,205.113 261.151,204.647 261.842 C 204.181 262.532,202.077 265.505,199.971 268.449 C 195.593 274.566,189.461 284.415,186.300 290.403 C 182.110 298.343,176.452 307.894,174.516 310.299 C 171.578 313.948,167.978 317.037,167.080 316.679 C 166.080 316.281,162.249 307.014,161.178 302.400 C 158.529 290.990,158.252 288.841,158.270 279.800 C 158.293 268.679,159.208 262.846,162.445 253.200 C 165.331 244.600,169.367 236.996,174.547 230.400 C 177.343 226.840,178.392 225.729,189.605 214.457 C 197.751 206.267,205.048 198.666,210.450 192.741 C 211.538 191.548,215.319 187.249,217.949 184.217 C 218.911 183.108,220.031 181.840,220.438 181.400 C 221.932 179.786,224.679 176.448,227.190 173.199 C 227.954 172.209,228.678 171.310,228.798 171.200 C 228.918 171.090,230.269 169.290,231.800 167.200 C 233.331 165.110,234.677 163.310,234.792 163.200 C 234.906 163.090,236.247 161.110,237.772 158.800 C 239.297 156.490,240.974 154.076,241.500 153.436 C 243.586 150.896,248.508 139.575,247.824 138.891 C 247.701 138.768,247.542 138.742,247.471 138.833 C 247.400 138.925,246.236 140.530,244.884 142.400 C 243.533 144.270,241.439 146.970,240.232 148.400 C 239.026 149.830,237.031 152.303,235.799 153.896 C 232.280 158.449,213.791 176.879,200.783 188.800 C 198.262 191.110,196.110 193.100,196.000 193.223 C 195.766 193.484,188.120 200.404,185.838 202.420 C 184.980 203.179,183.894 204.160,183.425 204.600 C 182.957 205.040,181.763 206.120,180.773 207.000 C 172.486 214.360,171.627 215.181,167.600 219.593 C 162.342 225.354,157.260 233.455,153.291 242.400 C 152.610 243.935,150.393 250.578,149.219 254.600 C 148.841 255.896,147.890 261.252,147.218 265.877 C 146.676 269.607,146.680 280.558,147.224 283.954 C 148.643 292.802,149.932 298.587,151.203 301.800 C 151.377 302.240,151.746 303.230,152.023 304.000 C 152.817 306.208,153.934 308.716,155.837 312.565 C 157.706 316.343,157.850 316.800,157.176 316.800 C 156.087 316.800,149.779 320.316,146.637 322.674 C 139.173 328.276,134.089 336.664,134.014 343.500 C 133.991 345.598,132.928 345.128,132.207 342.700 C 129.241 332.711,130.231 323.199,134.897 316.874 C 136.859 314.215,136.748 313.957,133.139 312.768 C 130.546 311.914,129.505 311.803,124.300 311.825 C 117.816 311.851,117.766 311.836,119.865 310.406 C 122.865 308.362,128.659 305.461,130.600 305.030 C 131.260 304.884,132.520 304.600,133.400 304.400 C 134.280 304.199,135.945 304.027,137.100 304.017 C 139.655 303.996,139.652 304.040,137.282 301.254 C 132.593 295.746,128.610 289.572,125.247 282.600 C 122.099 276.077,121.602 274.744,118.824 265.400 C 116.151 256.410,115.718 242.190,117.830 232.800 C 119.349 226.045,120.018 224.843,121.023 227.063 C 126.413 238.965,130.130 244.902,136.488 251.762 C 138.465 253.894,138.935 253.667,137.833 251.114 C 136.365 247.709,135.989 246.710,134.632 242.600 C 132.638 236.559,132.553 236.253,131.821 232.400 C 131.466 230.530,131.001 228.232,130.788 227.294 C 130.266 224.997,130.295 216.031,130.835 213.024 C 131.420 209.766,132.391 205.583,132.790 204.600 C 132.969 204.160,133.433 202.900,133.821 201.800 C 134.699 199.310,138.157 192.586,138.985 191.758 C 139.323 191.420,139.600 191.010,139.600 190.847 C 139.600 190.684,139.921 190.202,140.314 189.775 C 140.707 189.349,141.296 188.613,141.623 188.140 C 143.681 185.169,152.872 175.689,159.984 169.200 C 162.275 167.110,164.442 165.130,164.800 164.800 C 165.157 164.470,166.789 163.032,168.425 161.603 C 170.061 160.175,171.597 158.825,171.838 158.603 C 172.079 158.382,173.042 157.570,173.978 156.800 C 174.914 156.030,176.067 155.022,176.540 154.561 C 177.013 154.100,179.200 152.210,181.400 150.361 C 183.600 148.512,185.742 146.691,186.161 146.314 C 187.149 145.422,187.519 145.694,187.794 147.514 C 188.491 152.129,188.973 154.460,189.268 154.642 C 189.450 154.755,189.600 155.121,189.600 155.456 C 189.600 156.764,195.053 166.230,196.365 167.200 C 196.514 167.310,197.686 168.840,198.969 170.600 C 201.083 173.501,201.276 173.669,201.036 172.400 C 200.179 167.876,199.946 165.174,199.952 159.800 C 199.960 153.478,200.136 152.116,201.738 146.000 C 204.611 135.030,208.905 127.149,216.662 118.608 C 220.735 114.124,225.148 109.054,227.623 106.016 L 229.047 104.269 230.968 108.034 C 232.793 111.609,237.309 118.177,240.013 121.188 L 241.260 122.577 240.975 121.388 C 240.818 120.735,240.562 120.020,240.406 119.800 C 240.035 119.276,237.444 112.357,236.662 109.800 C 235.428 105.762,234.738 102.532,234.518 99.751 L 234.292 96.902 236.783 92.951 C 240.972 86.306,245.290 76.919,248.999 66.400 C 252.826 55.546,254.060 54.568,258.301 59.030 " stroke="none" fill="#fbfbfb" fill-rule="evenodd"></path><path id="path2" d="M119.445 228.500 C 117.099 234.915,116.230 246.407,117.408 255.400 C 118.298 262.185,121.268 273.744,122.440 274.980 C 122.638 275.189,122.800 275.626,122.800 275.952 C 122.800 278.685,132.011 294.286,137.511 300.869 C 140.579 304.540,140.584 304.510,136.800 304.617 C 131.912 304.754,126.817 306.480,121.700 309.730 C 119.410 311.185,119.381 311.171,124.500 311.151 C 129.158 311.133,131.773 311.616,135.300 313.147 C 137.592 314.142,137.582 314.031,135.613 316.584 C 130.768 322.864,129.492 334.407,132.716 342.800 C 133.145 343.917,132.959 344.365,134.624 338.200 C 136.752 330.317,145.363 321.305,154.454 317.446 L 157.107 316.319 154.599 311.060 C 142.471 285.634,143.800 255.981,158.150 231.846 C 159.181 230.111,159.955 228.622,159.870 228.536 C 159.784 228.451,156.404 228.207,152.357 227.994 C 148.311 227.781,143.200 227.430,141.000 227.213 C 136.191 226.741,131.712 226.688,131.473 227.100 C 131.051 227.828,133.206 237.404,134.872 242.200 C 135.668 244.491,137.645 249.703,138.362 251.400 C 140.094 255.497,139.625 255.552,135.930 251.684 C 131.575 247.127,126.096 239.142,123.520 233.600 C 121.537 229.334,120.800 227.607,120.800 227.226 C 120.800 226.203,120.014 226.942,119.445 228.500 M173.711 232.303 C 170.257 236.974,166.805 243.181,164.427 249.000 C 163.329 251.686,163.072 252.357,162.587 253.800 C 156.600 271.635,157.335 292.162,164.636 311.058 C 166.643 316.250,166.776 316.396,168.606 315.419 C 172.056 313.575,175.748 308.438,183.022 295.360 C 192.104 279.031,197.055 271.164,204.054 261.939 C 207.154 257.854,207.086 257.800,198.839 257.800 C 189.394 257.800,182.635 259.733,174.994 264.621 C 172.187 266.417,172.223 265.889,175.139 262.510 C 184.676 251.461,194.702 244.644,207.645 240.410 C 216.432 237.535,223.600 234.295,223.600 233.197 C 223.600 232.645,221.788 232.436,213.200 231.996 C 208.690 231.764,203.380 231.411,201.400 231.211 C 199.420 231.010,195.256 230.730,192.146 230.588 C 189.036 230.446,184.106 230.111,181.191 229.843 L 175.891 229.356 173.711 232.303 " stroke="none" fill="#de1017" fill-rule="evenodd"></path><path id="path3" d="M253.054 57.379 C 252.053 58.460,250.875 61.079,248.999 66.400 C 245.290 76.919,240.972 86.306,236.783 92.951 L 234.292 96.902 234.518 99.751 C 234.738 102.532,235.428 105.762,236.662 109.800 C 237.444 112.357,240.035 119.276,240.406 119.800 C 240.562 120.020,240.818 120.735,240.975 121.388 L 241.260 122.577 240.013 121.188 C 237.309 118.177,232.793 111.609,230.968 108.034 L 229.047 104.269 227.623 106.016 C 225.148 109.054,220.735 114.124,216.662 118.608 C 208.865 127.193,204.154 135.915,201.687 146.332 L 200.933 149.515 203.366 149.761 C 204.705 149.896,207.150 150.179,208.800 150.390 C 210.450 150.601,214.500 151.045,217.800 151.375 C 221.100 151.706,224.250 152.060,224.800 152.163 C 225.350 152.266,227.915 152.570,230.500 152.840 C 234.010 153.206,235.200 153.471,235.200 153.886 C 235.200 154.662,241.459 147.215,245.243 141.936 C 246.401 140.321,247.404 138.925,247.474 138.833 C 247.543 138.742,247.701 138.768,247.824 138.891 C 248.543 139.610,243.556 150.937,241.332 153.636 C 240.714 154.386,240.477 154.793,240.804 154.539 C 241.407 154.073,245.100 154.234,255.200 155.167 C 257.510 155.380,260.807 155.565,262.526 155.578 C 264.246 155.590,265.956 155.761,266.326 155.958 C 266.697 156.154,268.890 156.409,271.200 156.523 C 273.510 156.637,275.745 156.791,276.166 156.865 C 277.120 157.033,278.219 154.402,279.755 148.269 C 283.483 133.385,282.569 114.243,277.308 97.000 C 270.200 73.708,257.361 52.732,253.054 57.379 M199.709 160.000 C 199.709 160.990,199.787 161.395,199.882 160.900 C 199.978 160.405,199.978 159.595,199.882 159.100 C 199.787 158.605,199.709 159.010,199.709 160.000 M225.600 164.600 C 223.961 166.250,222.710 167.600,222.820 167.600 C 222.930 167.600,224.361 166.250,226.000 164.600 C 227.639 162.950,228.890 161.600,228.780 161.600 C 228.670 161.600,227.239 162.950,225.600 164.600 M261.507 165.890 C 262.226 165.979,263.306 165.977,263.907 165.886 C 264.508 165.795,263.920 165.722,262.600 165.724 C 261.280 165.726,260.788 165.801,261.507 165.890 M220.400 169.800 C 219.428 170.790,218.723 171.600,218.833 171.600 C 218.943 171.600,219.828 170.790,220.800 169.800 C 221.772 168.810,222.477 168.000,222.367 168.000 C 222.257 168.000,221.372 168.810,220.400 169.800 M206.378 197.100 L 205.000 198.600 206.500 197.222 C 207.896 195.938,208.184 195.600,207.878 195.600 C 207.812 195.600,207.137 196.275,206.378 197.100 M188.175 200.100 L 187.000 201.400 188.300 200.225 C 189.015 199.579,189.600 198.994,189.600 198.925 C 189.600 198.616,189.270 198.888,188.175 200.100 M130.469 224.600 C 130.391 226.211,130.804 227.645,131.265 227.360 C 131.495 227.218,131.490 226.949,131.252 226.663 C 131.039 226.406,130.789 225.568,130.697 224.798 C 130.539 223.492,130.524 223.479,130.469 224.600 M119.687 226.514 C 118.638 228.656,117.184 234.746,117.246 236.732 C 117.297 238.320,117.336 238.188,118.231 233.400 C 118.944 229.590,120.014 226.362,120.472 226.644 C 120.652 226.756,120.800 226.667,120.800 226.447 C 120.800 225.619,120.104 225.661,119.687 226.514 M120.800 227.402 C 120.800 227.628,121.750 229.792,123.520 233.600 C 126.096 239.142,131.575 247.127,135.930 251.684 C 139.625 255.552,140.094 255.497,138.362 251.400 C 136.284 246.483,134.224 240.527,133.173 236.400 C 132.243 232.745,131.720 231.597,132.171 234.200 C 132.491 236.047,132.669 236.654,134.632 242.600 C 135.989 246.710,136.365 247.709,137.833 251.114 C 139.655 255.337,136.424 252.468,130.947 244.999 C 127.441 240.218,121.600 229.639,121.600 228.070 C 121.600 227.837,121.420 227.536,121.200 227.400 C 120.980 227.264,120.800 227.265,120.800 227.402 M131.287 229.200 C 131.283 229.970,131.424 231.050,131.600 231.600 C 132.048 232.999,132.048 230.761,131.600 229.000 L 131.295 227.800 131.287 229.200 M159.914 229.100 C 155.969 233.623,147.829 253.857,148.046 258.600 C 148.066 259.040,148.252 258.680,148.459 257.800 C 149.513 253.314,152.083 245.123,153.291 242.400 C 154.886 238.804,157.503 233.740,159.128 231.100 C 160.811 228.368,161.023 227.827,159.914 229.100 M173.722 231.507 C 168.015 239.097,164.151 247.083,160.809 258.200 C 160.320 259.826,159.845 262.648,160.101 262.400 C 160.215 262.290,160.699 260.670,161.178 258.800 C 161.656 256.930,162.289 254.680,162.586 253.800 C 163.071 252.357,163.330 251.683,164.427 249.000 C 166.826 243.130,170.257 236.973,173.795 232.189 C 175.041 230.505,175.989 229.056,175.903 228.970 C 175.817 228.884,174.835 230.025,173.722 231.507 M222.394 234.309 C 218.736 236.436,214.747 238.086,207.645 240.410 C 194.702 244.644,184.676 251.461,175.139 262.510 C 172.223 265.889,172.187 266.417,174.994 264.621 C 182.635 259.733,189.394 257.800,198.839 257.800 C 207.086 257.800,207.154 257.854,204.054 261.939 C 197.159 271.026,191.929 279.308,183.709 294.153 C 176.334 307.470,173.043 312.260,169.509 314.820 C 167.401 316.347,166.982 316.309,166.027 314.500 C 165.592 313.675,165.227 313.215,165.218 313.477 C 165.192 314.173,166.812 316.800,167.266 316.800 C 168.270 316.800,171.909 313.537,174.516 310.299 C 176.452 307.894,182.110 298.343,186.300 290.403 C 189.461 284.415,195.593 274.566,199.971 268.449 C 202.077 265.505,204.181 262.532,204.647 261.842 C 205.113 261.151,205.788 260.342,206.147 260.044 C 209.916 256.916,193.768 255.904,186.600 258.819 C 186.160 258.998,185.080 259.358,184.200 259.620 C 183.320 259.882,180.845 260.966,178.700 262.030 C 173.970 264.375,173.929 264.237,178.048 259.846 C 187.600 249.662,196.554 244.231,211.400 239.616 C 215.419 238.366,222.535 235.077,224.400 233.606 C 225.916 232.411,225.264 232.639,222.394 234.309 M116.652 239.300 C 116.340 240.466,116.418 252.641,116.747 254.177 C 116.886 254.825,117.000 251.540,117.000 246.877 C 117.000 242.215,116.976 238.400,116.947 238.400 C 116.917 238.400,116.785 238.805,116.652 239.300 M117.260 256.875 C 117.227 257.687,117.473 259.577,117.807 261.075 C 118.141 262.574,118.510 264.226,118.626 264.747 C 118.743 265.268,118.920 265.613,119.020 265.513 C 119.120 265.414,118.852 263.638,118.426 261.566 C 117.999 259.495,117.576 257.260,117.485 256.600 C 117.335 255.507,117.315 255.532,117.260 256.875 M147.459 260.881 C 147.066 263.071,146.676 267.814,146.906 267.600 C 147.185 267.342,148.083 259.949,147.863 259.729 C 147.771 259.638,147.589 260.156,147.459 260.881 M159.388 264.538 C 159.239 265.535,159.199 266.586,159.300 266.875 C 159.400 267.164,159.618 266.443,159.782 265.274 C 159.947 264.105,159.987 263.054,159.871 262.938 C 159.755 262.822,159.538 263.542,159.388 264.538 M119.228 266.400 C 119.203 267.028,121.155 273.333,122.014 275.400 C 124.668 281.788,127.204 286.814,130.200 291.624 C 131.838 294.255,135.103 298.695,137.282 301.254 C 139.652 304.040,139.655 303.996,137.100 304.017 C 135.945 304.027,134.280 304.199,133.400 304.400 C 132.520 304.600,131.260 304.884,130.600 305.030 C 128.659 305.461,122.865 308.362,119.865 310.406 C 117.766 311.836,117.816 311.851,124.300 311.825 C 129.505 311.803,130.546 311.914,133.139 312.768 C 136.748 313.957,136.859 314.215,134.897 316.874 C 130.231 323.199,129.241 332.711,132.207 342.700 C 132.928 345.128,133.991 345.598,134.014 343.500 C 134.089 336.664,139.173 328.276,146.637 322.674 C 149.779 320.316,156.087 316.800,157.176 316.800 C 157.850 316.800,157.706 316.343,155.837 312.565 C 153.934 308.716,152.817 306.208,152.023 304.000 C 151.746 303.230,151.375 302.240,151.199 301.800 C 150.854 300.937,149.063 294.409,148.455 291.800 C 148.215 290.767,148.068 290.533,148.041 291.140 C 147.922 293.861,151.306 304.136,154.603 311.060 L 157.107 316.319 154.454 317.446 C 145.363 321.305,136.752 330.317,134.624 338.200 C 132.959 344.365,133.145 343.917,132.716 342.800 C 129.492 334.407,130.768 322.864,135.613 316.584 C 137.582 314.031,137.592 314.142,135.300 313.147 C 131.773 311.616,129.158 311.133,124.500 311.151 C 119.381 311.171,119.410 311.185,121.700 309.730 C 126.817 306.480,131.912 304.754,136.800 304.617 C 140.584 304.510,140.579 304.540,137.511 300.869 C 132.220 294.536,126.417 284.994,123.603 278.000 C 123.116 276.790,122.547 275.434,122.338 274.987 C 122.129 274.540,121.349 272.290,120.605 269.987 C 119.861 267.684,119.241 266.070,119.228 266.400 M158.570 269.866 C 157.954 274.727,158.304 292.229,159.003 291.530 C 159.082 291.451,158.996 288.689,158.811 285.392 C 158.626 282.095,158.627 276.792,158.813 273.608 C 159.169 267.517,159.067 265.945,158.570 269.866 M146.565 275.000 C 146.566 278.960,146.626 280.526,146.698 278.480 C 146.771 276.434,146.771 273.194,146.698 271.280 C 146.624 269.366,146.565 271.040,146.565 275.000 M147.027 285.039 C 147.142 286.600,147.400 288.400,147.600 289.039 C 148.061 290.515,147.672 285.660,147.164 283.600 C 146.914 282.588,146.876 282.986,147.027 285.039 M159.287 293.200 C 159.283 293.970,159.424 295.050,159.600 295.600 C 160.048 296.999,160.048 294.761,159.600 293.000 L 159.295 291.800 159.287 293.200 M160.243 298.400 C 160.379 299.390,160.654 300.470,160.853 300.800 C 161.296 301.531,160.852 298.585,160.342 297.400 C 160.120 296.887,160.085 297.246,160.243 298.400 M161.232 302.136 C 161.176 303.407,164.660 313.073,165.038 312.695 C 165.143 312.590,164.840 311.536,164.365 310.352 C 163.890 309.168,162.998 306.670,162.383 304.800 C 161.768 302.930,161.250 301.731,161.232 302.136 " stroke="none" fill="#bcbcbc" fill-rule="evenodd"></path><path id="path4" d="M184.800 147.667 C 182.226 149.954,181.024 150.985,177.200 154.191 C 175.110 155.943,173.310 157.474,173.200 157.594 C 173.090 157.713,171.009 159.549,168.575 161.673 C 166.142 163.798,163.892 165.865,163.575 166.266 C 163.124 166.839,168.785 162.064,169.600 161.184 C 169.710 161.065,173.535 157.773,178.100 153.869 C 185.305 147.706,186.791 146.354,186.300 146.412 C 186.245 146.418,185.570 146.983,184.800 147.667 M187.293 147.400 C 187.294 148.060,187.432 149.140,187.600 149.800 C 188.023 151.463,188.042 149.826,187.623 147.800 C 187.345 146.455,187.292 146.391,187.293 147.400 M200.666 150.171 C 200.528 150.533,200.330 152.577,200.228 154.714 L 200.041 158.600 200.521 154.527 C 201.094 149.658,200.940 149.850,203.858 150.353 C 207.473 150.975,212.642 151.341,212.267 150.949 C 212.084 150.757,210.554 150.466,208.867 150.303 C 207.180 150.140,204.702 149.896,203.359 149.760 C 201.318 149.555,200.877 149.622,200.666 150.171 M212.800 151.313 C 212.998 151.523,216.064 151.885,227.067 152.996 C 235.882 153.886,235.682 153.761,232.809 156.591 C 231.714 157.669,230.891 158.624,230.980 158.713 C 231.278 159.011,235.184 154.608,235.192 153.965 C 235.199 153.447,234.330 153.240,230.500 152.846 C 227.915 152.580,224.900 152.199,223.800 151.999 C 221.411 151.564,212.514 151.010,212.800 151.313 M188.056 152.200 C 188.056 152.640,188.211 153.360,188.400 153.800 L 188.744 154.600 188.744 153.800 C 188.744 153.360,188.589 152.640,188.400 152.200 L 188.056 151.400 188.056 152.200 M240.575 154.937 C 240.242 155.412,238.354 158.140,236.380 161.000 C 234.407 163.860,232.119 167.093,231.296 168.185 C 230.473 169.276,230.024 170.031,230.297 169.863 C 230.895 169.494,236.212 162.182,239.000 157.894 C 241.430 154.157,240.619 154.425,247.600 155.048 C 271.300 157.162,276.711 157.512,275.693 156.866 C 275.414 156.689,273.353 156.498,271.113 156.443 C 268.873 156.388,266.761 156.199,266.420 156.024 C 266.079 155.849,262.830 155.582,259.200 155.430 C 255.570 155.278,251.880 154.994,251.000 154.799 C 247.093 153.932,241.226 154.010,240.575 154.937 M188.800 154.919 C 188.800 156.755,191.992 162.103,197.482 169.463 C 199.477 172.138,201.195 174.568,201.300 174.863 C 201.708 176.013,202.011 174.815,201.732 173.153 C 201.467 171.581,201.414 171.514,201.218 172.505 C 200.875 174.244,192.185 162.359,190.027 157.200 C 189.115 155.019,188.800 154.433,188.800 154.919 M276.260 158.103 L 275.985 159.200 271.292 159.228 C 268.712 159.244,266.240 159.427,265.800 159.635 C 265.202 159.919,265.404 159.963,266.600 159.812 C 267.480 159.700,269.949 159.607,272.086 159.604 C 276.083 159.600,277.225 159.074,276.694 157.481 C 276.607 157.220,276.411 157.500,276.260 158.103 M221.858 167.900 C 217.062 172.685,211.127 178.473,208.669 180.762 C 206.211 183.051,202.940 186.116,201.400 187.572 C 199.860 189.029,196.800 191.836,194.600 193.810 C 192.400 195.785,190.510 197.500,190.400 197.623 C 190.153 197.899,182.539 204.749,177.978 208.799 C 170.703 215.260,161.733 224.800,162.934 224.800 C 163.062 224.800,164.139 223.585,165.328 222.100 C 168.796 217.770,172.645 214.029,185.400 202.593 C 192.000 196.675,197.490 191.727,197.600 191.597 C 197.710 191.467,199.060 190.213,200.600 188.810 C 207.881 182.175,223.463 166.970,230.767 159.373 C 230.858 159.278,230.853 159.200,230.755 159.200 C 230.657 159.200,226.653 163.115,221.858 167.900 M262.600 160.400 L 261.800 160.744 262.600 160.766 C 263.040 160.778,263.670 160.613,264.000 160.400 C 264.795 159.886,263.796 159.886,262.600 160.400 M259.300 161.786 C 258.145 162.323,257.200 162.853,257.200 162.963 C 257.200 163.182,261.092 161.441,261.488 161.045 C 261.906 160.627,261.474 160.773,259.300 161.786 M200.035 163.633 C 200.054 164.825,200.220 166.700,200.404 167.800 C 200.640 169.215,200.674 168.630,200.521 165.800 C 200.287 161.483,199.978 160.104,200.035 163.633 M254.960 164.355 C 252.953 165.840,248.580 170.313,248.861 170.594 C 248.979 170.712,249.741 170.357,250.555 169.804 C 251.370 169.252,252.197 168.800,252.394 168.800 C 252.591 168.800,252.863 168.622,252.997 168.405 C 253.278 167.949,252.073 168.313,251.290 168.919 C 251.010 169.136,250.692 169.226,250.584 169.118 C 250.372 168.905,253.327 166.066,255.600 164.298 C 257.470 162.843,256.938 162.890,254.960 164.355 M257.800 166.274 C 256.416 166.588,253.575 167.708,253.741 167.874 C 253.829 167.962,254.598 167.774,255.450 167.456 C 256.303 167.139,257.810 166.703,258.800 166.487 C 259.790 166.272,260.150 166.095,259.600 166.094 C 259.050 166.094,258.240 166.174,257.800 166.274 M267.000 166.606 C 268.320 166.894,269.462 167.069,269.538 166.994 C 269.776 166.759,266.646 166.003,265.600 166.043 C 265.050 166.065,265.680 166.318,267.000 166.606 M153.501 175.669 C 145.129 184.004,140.456 189.286,138.638 192.467 C 137.590 194.300,137.935 193.916,140.720 190.149 C 143.181 186.821,152.871 176.209,155.267 174.219 C 157.565 172.310,162.831 167.097,162.647 166.913 C 162.550 166.817,158.435 170.757,153.501 175.669 M270.600 167.662 C 271.040 167.903,271.625 168.381,271.900 168.726 C 272.175 169.071,272.400 169.149,272.400 168.899 C 272.400 168.391,270.846 167.193,270.211 167.212 C 269.985 167.219,270.160 167.421,270.600 167.662 M270.833 171.418 C 269.698 173.984,269.815 174.227,271.046 171.861 C 271.601 170.794,271.968 169.834,271.861 169.728 C 271.754 169.621,271.292 170.381,270.833 171.418 M226.012 174.813 C 224.149 177.213,222.168 179.677,221.610 180.288 C 218.578 183.613,215.945 186.796,216.251 186.770 C 216.650 186.735,220.178 182.646,225.358 176.216 C 227.314 173.787,229.187 171.485,229.520 171.100 C 229.852 170.715,229.961 170.411,229.762 170.425 C 229.563 170.438,227.876 172.413,226.012 174.813 M268.157 176.900 C 267.357 178.495,265.981 181.060,265.099 182.600 C 262.181 187.691,261.887 188.253,262.590 187.400 C 263.926 185.778,270.272 174.000,269.810 174.000 C 269.700 174.000,268.956 175.305,268.157 176.900 M210.800 192.493 C 208.270 195.369,199.972 204.039,192.361 211.761 C 178.219 226.106,176.000 228.451,176.000 229.044 C 176.000 229.230,176.584 228.666,177.297 227.791 C 178.010 226.916,182.376 222.420,186.998 217.800 C 196.406 208.397,202.127 202.478,208.649 195.400 C 214.960 188.552,216.138 187.196,215.747 187.232 C 215.556 187.249,213.330 189.617,210.800 192.493 M257.751 194.500 C 253.371 201.115,248.132 208.198,241.923 215.900 C 239.750 218.595,238.114 220.790,238.286 220.778 C 239.408 220.700,256.470 197.667,261.160 189.900 C 263.161 186.586,261.568 188.736,257.751 194.500 M136.800 195.600 C 136.351 196.480,136.074 197.200,136.184 197.200 C 136.294 197.200,136.751 196.480,137.200 195.600 C 137.649 194.720,137.926 194.000,137.816 194.000 C 137.706 194.000,137.249 194.720,136.800 195.600 M134.854 199.562 C 133.675 202.303,133.819 202.699,135.028 200.038 C 135.568 198.849,135.942 197.808,135.859 197.726 C 135.777 197.643,135.324 198.470,134.854 199.562 M132.446 206.039 C 132.201 206.743,132.018 207.608,132.040 207.960 C 132.061 208.312,132.329 207.803,132.635 206.829 C 133.275 204.788,133.115 204.120,132.446 206.039 M131.476 210.010 C 131.330 210.555,131.227 211.450,131.246 212.000 C 131.271 212.718,131.384 212.557,131.649 211.427 C 132.055 209.695,131.900 208.425,131.476 210.010 M130.656 215.445 C 130.515 216.472,130.427 218.772,130.461 220.556 C 130.515 223.444,130.554 223.251,130.820 218.800 C 131.136 213.517,131.079 212.356,130.656 215.445 M237.192 221.500 C 237.181 221.888,233.102 226.165,230.864 228.135 C 229.910 228.975,229.201 229.734,229.289 229.823 C 229.539 230.072,234.852 225.107,236.541 223.046 C 237.373 222.031,237.862 221.200,237.627 221.200 C 237.392 221.200,237.196 221.335,237.192 221.500 M130.800 225.376 C 130.800 225.913,130.947 226.444,131.128 226.555 C 131.308 226.667,131.377 226.227,131.282 225.579 C 131.072 224.149,130.800 224.035,130.800 225.376 M161.937 225.900 C 161.109 226.888,159.945 228.800,160.172 228.800 C 160.276 228.800,160.919 227.990,161.600 227.000 C 162.847 225.188,163.027 224.601,161.937 225.900 M227.014 231.246 C 224.913 232.826,224.716 233.087,226.327 232.162 C 227.462 231.510,229.247 229.945,228.762 230.027 C 228.673 230.042,227.886 230.591,227.014 231.246 " stroke="none" fill="#a0b6c0" fill-rule="evenodd"></path></g></svg>